<svg height="36" viewBox="0 0 36 36" width="36" xmlns="http://www.w3.org/2000/svg"><path d="m18 5c7.1797017 0 13 5.8202983 13 13s-5.8202983 13-13 13-13-5.8202983-13-13 5.8202983-13 13-13zm0 1.5c-6.3512746 0-11.5 5.1487254-11.5 11.5s5.1487254 11.5 11.5 11.5 11.5-5.1487254 11.5-11.5-5.1487254-11.5-11.5-11.5zm-3.292015 15.000863 6.3047856-.0008681c2.6197051-.0092924 4.4412256.4634064 5.9872294 2.5000051l-1 1c-1.2642859-1.3858721-3.03366-2.0069095-4.9845245-2h-6.0328795c-1.8512505-.0067708-3.5407609.5533989-4.789183 1.7978106l-.193413.2021894-1-1c1.4909781-1.9641139 3.2383496-2.4738272 5.707985-2.499137zm3.3912306-10.500863c2.7057621 0 4.8992156 2.1826118 4.8992156 4.875s-2.1934535 4.875-4.8992156 4.875-4.8992156-2.1826118-4.8992156-4.875 2.1934535-4.875 4.8992156-4.875zm0 1.5c-1.8732199 0-3.3917646 1.511039-3.3917646 3.375s1.5185447 3.375 3.3917646 3.375 3.3917647-1.511039 3.3917647-3.375-1.5185448-3.375-3.3917647-3.375z" fill-rule="evenodd"></path></svg>