<svg viewBox="0 0 432.13 63.25" xmlns="http://www.w3.org/2000/svg"><path d="m63.16 0v15.3h-40.29v8.08h39.01v15.73h-39.01v8.67h40.88v15.47h-63.75v-63.25z"></path><path d="m75.45 0h37.23c34.51 0 42.16 15.56 42.16 29.84v2.55c0 14.45-6.97 30.86-42.16 30.86h-37.23zm22.95 46.92h11.56c18.87 0 20.91-8.84 20.91-15.22v-.51c0-6.12-2.12-14.96-20.91-14.96h-11.56z"></path><path d="m187.88 63.25h-22.95v-63.25h22.95z"></path><path d="m195.72 0h73.53v17.43h-25.33v45.82h-22.87v-45.82h-25.33z"></path><path d="m340.44 0v15.3h-40.29v8.08h39.02v15.73h-39.02v8.67h40.89v15.47h-63.76v-63.25z"></path><path d="m352.73 0h37.23c34.51 0 42.16 15.56 42.16 29.84v2.55c0 14.45-6.97 30.86-42.16 30.86h-37.23zm22.95 46.92h11.56c18.87 0 20.91-8.84 20.91-15.22v-.51c0-6.12-2.12-14.96-20.91-14.96h-11.56z"></path></svg>