<svg viewBox="0 0 100 19.2" xmlns="http://www.w3.org/2000/svg"><g enable-background="new"><path d="m8.3 6.8h-6.6v-4.9h20.2v4.8h-6.6v10.5h-7z"></path><path d="m30.6 17.3h-7v-15.4h15.6c3.8 0 6.2 1.1 6.2 3.9v.2c0 2.3-2.1 3.2-3.3 3.5 2.2.4 3.4 1.8 3.4 3.8v2.3c0 .9.1 1.3.3 1.5v.1h-7.1c-.1-.1-.1-.3-.1-.6v-1.8c0-1.7-.8-2.6-3-2.6h-4.9v5.1zm0-9.1h6.2c1.2 0 1.6-.5 1.6-1.1 0-.6-.4-1.1-1.6-1.1h-6.2z"></path><path d="m54.3 17.3h-6.9v-15.4h6.9z"></path><path d="m56.4 1.9h15.8c4.6 0 5.8 1.7 5.8 3.5v.2c0 1.8-1.6 2.8-2.9 3 1.7.3 3.8 1.3 3.8 4v.2c0 2.4-1.6 4.5-6.6 4.5h-15.9zm7 3.8v1.8h6.1c1.1 0 1.5-.3 1.5-.9 0-.6-.4-.9-1.5-.9zm0 5.5v2.2h6.4c1.4 0 1.7-.5 1.7-1.1 0-.6-.3-1.1-1.7-1.1z"></path><path d="m98.2 1.9v4.1h-11v1.5h10.8v4h-10.8v1.7h11.1v4.1h-18v-15.4z"></path></g></svg>