<svg height="36" viewBox="0 0 36 36" width="36" xmlns="http://www.w3.org/2000/svg"><path d="m24 11v2h2c2.7614237 0 5 2.2385763 5 5v7l-2.0500973.0004345c-.231803 1.1409037-1.2405773 1.9995655-2.4499027 1.9995655s-2.2180997-.8586618-2.4499027-1.9995655h-10.1001946c-.231803 1.1409037-1.2405773 1.9995655-2.4499027 1.9995655s-2.21809967-.8586618-2.44990271-1.9995655l-4.05009729-.0004345v-1.5l4.20794546.0001748c.38573839-.8830457 1.26682734-1.5001748 2.29205454-1.5001748s1.9063162.6171291 2.2920545 1.5001748h10.415891c.3857383-.8830457 1.2668273-1.5001748 2.2920545-1.5001748s1.9063162.6171291 2.2920545 1.5001748l.7079455-.0001748v-4.5h-3.5v-3l2.872703.0000683c-.6324679-.9067805-1.6833006-1.5000683-2.872703-1.5000683h-2v7.5h-19v-11zm-12.5 12.5c-.5522847 0-1 .4477153-1 1s.4477153 1 1 1 1-.4477153 1-1-.4477153-1-1-1zm15 0c-.5522847 0-1 .4477153-1 1s.4477153 1 1 1 1-.4477153 1-1-.4477153-1-1-1zm-4-11h-16v8h16z" fill-rule="evenodd"></path></svg>